/* XPM */
static char *f8d6c38235e544c49eea3989ae64ff9eHkNbrUnYhPzGyRjH[] = {
/* columns rows colors chars-per-pixel */
"50 50 212 2 ",
"   c #020202",
".  c #0B0403",
"X  c #040905",
"o  c #0B0903",
"O  c #04040A",
"+  c #0A030B",
"@  c #030A0E",
"#  c #0A0A0A",
"$  c #140302",
"%  c #1B0501",
"&  c #140A03",
"*  c #1B0C05",
"=  c #13020A",
"-  c #1C050B",
";  c #120C09",
":  c #061706",
">  c #0B110B",
",  c #191406",
"<  c #12130C",
"1  c #060514",
"2  c #020913",
"3  c #0C0C10",
"4  c #120A11",
"5  c #0B1615",
"6  c #131313",
"7  c #141A10",
"8  c #1A1913",
"9  c #1B1B1C",
"0  c #260406",
"q  c #220B02",
"w  c #320604",
"e  c #271409",
"r  c #391904",
"t  c #2E1B1F",
"y  c #3C1910",
"u  c #152515",
"i  c #1A2415",
"p  c #1C241C",
"a  c #142819",
"s  c #22240F",
"d  c #3C250E",
"f  c #25271D",
"g  c #3C241A",
"h  c #1F2324",
"j  c #252424",
"k  c #2B2A25",
"l  c #2B2B2B",
"z  c #273329",
"x  c #252D38",
"c  c #343434",
"v  c #3C3234",
"b  c #3B3B3B",
"n  c #420F00",
"m  c #431A0A",
"M  c #4B1C0C",
"N  c #531712",
"B  c #711B1D",
"V  c #49230A",
"C  c #50330E",
"Z  c #4A2E17",
"A  c #572B14",
"S  c #4B3818",
"D  c #5A321A",
"F  c #6A2C1A",
"G  c #633416",
"H  c #71391C",
"J  c #492022",
"K  c #502D23",
"L  c #593325",
"P  c #752824",
"I  c #6C3C23",
"U  c #65382C",
"Y  c #743524",
"T  c #713929",
"R  c #344C24",
"E  c #78481E",
"W  c #4E5031",
"Q  c #6A472D",
"!  c #7B4A29",
"~  c #7C512B",
"^  c #724C3F",
"/  c #7D533B",
"(  c gray27",
")  c #4A4A4B",
"_  c #55534E",
"`  c #545454",
"'  c #5A5A5A",
"]  c #5D7C40",
"[  c #5F6356",
"{  c #5A6676",
"}  c #676767",
"|  c #6A6A6A",
" . c #706D6C",
".. c #727272",
"X. c gray48",
"o. c #B91A1E",
"O. c #AF1C24",
"+. c #872E32",
"@. c #A82323",
"#. c #B52C28",
"$. c #B9352E",
"%. c #C7241D",
"&. c #CF1E25",
"*. c #CE2021",
"=. c #DE2E32",
"-. c #C93332",
";. c #E32C26",
":. c #BC6D1C",
">. c #844D24",
",. c #87542D",
"<. c #96572D",
"1. c #8E5430",
"2. c #925D37",
"3. c #866B2F",
"4. c #9E6B33",
"5. c #BB6C24",
"6. c #B3682F",
"7. c #B96D2A",
"8. c #B77328",
"9. c #A56736",
"0. c #AD6A39",
"q. c #AC713C",
"w. c #B57738",
"e. c #B2703C",
"r. c #CD6B1C",
"t. c #DF7A1E",
"y. c #E37A1D",
"u. c #E04E28",
"i. c #C16A23",
"p. c #C56927",
"a. c #CC772C",
"s. c #D67C25",
"d. c #DB7C25",
"f. c #DD772C",
"g. c #D67C2C",
"h. c #DB7B2B",
"j. c #C77C38",
"k. c #DB7736",
"l. c #D57D34",
"z. c #DB7B33",
"x. c #D47C3B",
"c. c #E17924",
"v. c #E1772B",
"b. c #E1792B",
"n. c #E27533",
"m. c #956742",
"M. c #A56B43",
"N. c #AA6B43",
"B. c #B76C43",
"V. c #AB7944",
"C. c #B87542",
"Z. c #A06D50",
"A. c #A37A54",
"S. c #BE7F56",
"D. c #CD4F42",
"F. c #D84F45",
"G. c #C67A43",
"H. c #C47C44",
"J. c #5F8D44",
"K. c #60865B",
"L. c #6FB651",
"P. c #64C045",
"I. c #D3811B",
"U. c #CE8224",
"Y. c #D58229",
"T. c #CC8138",
"R. c #D48632",
"E. c #E88B31",
"W. c #CBAB3C",
"Q. c #E7A627",
"!. c #EBA32D",
"~. c #F3A22B",
"^. c #E7A536",
"/. c #F6CF1C",
"(. c #F8D933",
"). c #B5904E",
"_. c #83857B",
"`. c #C48042",
"'. c #CF974D",
"]. c #DCA847",
"[. c #CAAB59",
"{. c #E3AA51",
"}. c #E0BE75",
"|. c #97C85E",
" X c #97CB66",
".X c #728395",
"XX c #838386",
"oX c #959595",
"OX c #99ABB9",
"+X c #B2B5B4",
"@X c #C7C6B8",
"#X c #CED2B6",
"$X c #A2BCC9",
"%X c #AFCFDE",
"&X c #B5CBDC",
"*X c #ACCCE6",
"=X c #B3CCE5",
"-X c #D0D4C2",
";X c #DDE6C7",
":X c #EBF3CF",
">X c #E8EDD5",
",X c #ECF3D3",
"<X c #EDF3DB",
"1X c #F0F4DD",
"2X c #DFE6E1",
"3X c #ECEBEB",
"4X c #EFF9E7",
"5X c #F3F9E3",
"6X c #F5F8E5",
"7X c #F4F6EA",
"8X c #F2FBEA",
"9X c #FAF6FA",
/* pixels */
"#                           #   6 # 6         #                                   #                 ",
"                        j           #       # oX                #   j                 #             ",
"                                    #           # #                       #                         ",
"                                                                                  #           ` #   ",
"              9 #                                                           6     c           #     ",
"                  #       #                                                               6 9       ",
"                  6 #                                                               #               ",
"                                                                                          9         ",
"                      #                       # 6                                                   ",
"          # # #       ) # ` # #         # # b                     X       #                         ",
"          #   #       9 '                       9   O   #             #   #                 #       ",
"            #       ( #         9 O ; +   O     .       * , +             b #             6         ",
"            6                 # O $ C.g.f.d.d.d.g.d.f.d.k.C.0 X           ( #                     # ",
"l     #                   o   M.c.<.n h.v.q.q @ X . ,.z.l.x.0.x.z.! O v       #       )             ",
"#     k #                 M.n.g.h.h.I ~ { %X=X=X&X&X=XOXr f.M 1.f.d.h.<.    #                       ",
"        )           . 1 !.d.0.k.h.h.$ *X{ V T.d.d.j.$ .X*X4 f.z.f.g.h.z.a.O  .# #                 6 ",
"          j         o !.Y.A Z s.d.d.x V.d.E w.d.v.}.d.k.2 %XQ C.A.d.h.n.G.p.+ ) #                   ",
"            X.#   . !.!.f.k.h.U.6.f.f.g.d.S y.d.z.d.I.d.l.x $Xs.n.h.h.k.N h.8.X # # #               ",
"    #     9     . ^.q !.h.h.d.,.e.x.C.. @   H.z.g.n.G.>.x.n.x.h.g.h.f.h.h.h.7.Q j #         6       ",
"                d ^.{.. ^.s.d.h.f.A 4X1X,X,X@X1.l., 5X<X>X$ d.g.s.A.z.f.h.a.0.5.X                   ",
"              p - !.^.U.X ).s.h.a.8X5X<X,X,X,Xp [ 5X,X,X,X;X* h.s.j.t.h.2.  0.p.+ h                 ",
"                ; ; ~.^.d.G.d C.! 7X5X# f ,X:X-X7X5X:X>X,X,X_ h.h.h.V O 1.5.5.5.$ _                 ",
"                  X   '.Q.h.c.f.I 4X6X,X,X,X,X-X7X5X,X# <X,X@Xk.m 2.g.:.i.i.8.% . O                 ",
"6     #       . |.# u.Y + $ V.x.`.2X5X,X,X,X:Xf 6X5X,X,X,X,Xz f.d.i.7.e.e   0 $         XX    #     ",
"6             # X : @ +.w F F.D.W * 7X,X,X,X@XE 2 8X<X,X:X#Xr 9.e O O 0 -.=.-.- :       #           ",
"#         6     . o @ L.: 0 -.;.$.C ~   X . ).f.h.. 3X<X_.r ^ $.;.;.=.B . N &.- J.K.              # ",
"  #     # 9 .   (./.3.@ L.L. X] 7   - = w d.E.x.d.h.b.l.r.Z P *.%.#.#.#.P .   W   3 ; #     #       ",
"6       j   b ; O 4.Z.9.X o W P.5 ].,.G.l.H.E.- f.f.l.9.G.s.L.L.W f R . I K o /.;   )               ",
"        #   X . . . T U m.9.4.@ R.5 i +X8 x.t y.l.G ; . e k.8.U . X y I U D J + #   6               ",
"      j 9         m.- H g .   Z % i i i ' 3X2 3 9XXX> 7 i a / 9.T L   L D & . o ;                   ",
"  #               & e Y Y H T '.@ i i i i > u > 8 s 5 p i a a c.+ G $ K F L O &                     ",
"      6         + '.Q.C.  g H 3.A i i i i i i i $ @.@.o.$ i u l.O F G L O N.:.o   6         #       ",
"                  Z ^.d.h.h./ 1 h.# p i i i i i < % > 0 O.. i l.= , $ S.f.l.7.o                     ",
"                  [.].R.h.v.f.x.V.h.. b 9XX p > a i 8 i B N 4.`.H.8.h.s.b.q.e.  9 #                 ",
"            k   + # W.m d.h.g.g.w., f.x.q 3 # 3X9X. +X9 y k.h.& B.q.b.f.f.d 1                       ",
"  #       #     #     d g.d.d.h.h.h.M.! h.0 d.l.g.g.f.h.d.h.h.h.! 9.h.% . .                         ",
"                    6 k ; = D x.z.h.k.g.d.m g.h.h.h.h.h.h.h.d.T.V O X     #         6 #         6   ",
"                  # 9         .   O q >.H.l.g.h.s.R.`.~ q + . ; .           c       9 c         #   ",
"              6               #       #   < < f # _.    X     #   6                       # oX      ",
"            #                 b           l #         6         # }                 6       #       ",
"  #     j #                 #   6         #     b   6           # #         #   #                   ",
"                #                   6 6   # ..  6     #   # #                         k       6     ",
"                #                 # ) } #   9                                                       ",
"          j   6             # #   # 6 # X.                      6     XX        # # #             j ",
"                              #     #                 #       #     #     c #   #     #             ",
"      6             #   #     # 6         |     3   #     #   ' oX# #     # 9                       ",
"                      # oX                  #       # # #     # #       # X.( #       #     #     l ",
"                        #   #               # |     '   # 6             # # #   #                 # ",
"  # c                                         9             #                                       ",
"        #                                                               #       # #   c             "
};
