/* XPM */
static char *_3c7c62adc674ac3e82c75446bd7efb8F56fM6vZeEq9fhkN[] = {
/* columns rows colors chars-per-pixel */
"50 50 193 2 ",
"   c #000000",
".  c #080407",
"X  c #010B01",
"o  c #06020B",
"O  c #0A070A",
"+  c #021101",
"@  c #0C0519",
"#  c #072902",
"$  c gray16",
"%  c #2B5610",
"&  c #2E9C0C",
"*  c #3F9E06",
"=  c #35970D",
"-  c #339B0D",
";  c #3C9A0D",
":  c #2F9716",
">  c #2E9D12",
",  c #2F971E",
"<  c #359616",
"1  c #399614",
"2  c #349A15",
"3  c #3B9B13",
"4  c #35971B",
"5  c #38971D",
"6  c #359819",
"7  c #39991A",
"8  c #29A306",
"9  c #2EA30C",
"0  c #32A30E",
"q  c #38AA0E",
"w  c #37B800",
"e  c #2EA311",
"r  c #2BAF10",
"t  c #32A215",
"y  c #3DA514",
"u  c #3F8A20",
"i  c #2D9527",
"p  c #379720",
"a  c #3B9522",
"s  c #369B23",
"d  c #3C9A22",
"f  c #45921A",
"g  c #4E9F19",
"h  c #47A90E",
"j  c #45AA14",
"k  c #4AAA1C",
"l  c #51AA19",
"z  c #47BF1C",
"x  c #52B313",
"c  c #53B81B",
"v  c #408020",
"b  c #4E8F2C",
"n  c #479525",
"m  c #439230",
"M  c #46B123",
"N  c #3DEE1B",
"B  c #43C11C",
"V  c #49C41F",
"C  c #46CE1D",
"Z  c #55CE1D",
"A  c #4FDC1C",
"S  c #4BE516",
"D  c #44EB16",
"F  c #4BE816",
"G  c #44E719",
"H  c #4BE61B",
"J  c #46EA1D",
"K  c #4AE91C",
"L  c #56E516",
"P  c #53E51C",
"I  c #5CE71E",
"U  c #52EC1F",
"Y  c #5CE91B",
"T  c #41F314",
"R  c #5DF912",
"E  c #5DF51C",
"W  c #63EB1E",
"Q  c #6CED1F",
"!  c #64F316",
"~  c #62F41E",
"^  c #69F01F",
"/  c #43CD23",
"(  c #49C825",
")  c #52CC27",
"_  c #4CDB24",
"`  c #57D826",
"'  c #5AD62C",
"]  c #52DB2D",
"[  c #52DD37",
"{  c #5DDF30",
"}  c #6BCC28",
"|  c #61DB2D",
" . c #74D72D",
".. c #6BD937",
"X. c #7AD730",
"o. c #75DA35",
"O. c #7DDF30",
"+. c #4DE624",
"@. c #46EB21",
"#. c #4AE922",
"$. c #53E625",
"%. c #55EF22",
"&. c #56E72B",
"*. c #5EF423",
"=. c #5FF428",
"-. c #65E526",
";. c #62EF24",
":. c #6BEE21",
">. c #66EE2D",
",. c #69EF2E",
"<. c #73EE20",
"1. c #62F322",
"2. c #69F527",
"3. c #62F32B",
"4. c #69F22C",
"5. c #72F223",
"6. c #7AF424",
"7. c #7AF827",
"8. c #7EF628",
"9. c #7CFB2E",
"0. c #64E534",
"q. c #65EE30",
"w. c #6AEE32",
"e. c #6DEA3B",
"r. c #72E538",
"t. c #7EFA39",
"y. c #74B25D",
"u. c #74B765",
"i. c #78E94D",
"p. c #7CEB51",
"a. c #84F72B",
"s. c #8CF62B",
"d. c #86FB2D",
"f. c #8BFC2E",
"g. c #90F021",
"h. c #95FC25",
"j. c #9AFA24",
"k. c #93F42A",
"l. c #9BF62C",
"z. c #96FB2D",
"x. c #9AFA2E",
"c. c #82E437",
"v. c #87EC3F",
"b. c #8FF236",
"n. c #8BFE31",
"m. c #9BF731",
"M. c #94FC32",
"N. c #9AFA32",
"B. c #91F63A",
"V. c #9CF739",
"C. c #94FB3B",
"Z. c #9AF939",
"A. c #A2F42C",
"S. c #A0FA2D",
"D. c #A0FA34",
"F. c #A4F33E",
"G. c #92E942",
"H. c #8FF441",
"J. c #93F343",
"K. c #96F940",
"L. c #8CE95B",
"P. c #A1E948",
"I. c #A5F441",
"U. c #ACEF59",
"Y. c #9FF165",
"T. c #93EC7B",
"R. c #B2F566",
"E. c #A9D39C",
"W. c #A6F686",
"Q. c #B3F798",
"!. c #C8FA8C",
"~. c #D6FBA5",
"^. c #CAF9BE",
"/. c #DFFFBA",
"(. c #DEFFC1",
"). c #DCFCCD",
"_. c #E3FCC0",
"`. c #EEFFCD",
"'. c #E7FFD6",
"]. c #EEFFD9",
"[. c #ECFFDE",
"{. c #EDFCEC",
"}. c #F5FDE6",
"|. c #FDFFE4",
" X c #F4FEEC",
".X c #FEFAE9",
"XX c #EFFDF6",
"oX c #EFFBFB",
"OX c #F5FEF2",
"+X c #FAFDF4",
"@X c #F9FFF6",
"#X c #F5FFFC",
"$X c #FAFCFC",
/* pixels */
"                                  1.x.x.x.R./.x.x.F *.*.z.l.x.M.                                    ",
"                                ..C.x.x.$X].+XA.1.1. X~ #.g.N.x.k.                                  ",
"                                1.l.f.x.x.C.r.M.1.1.1.3.3.T +Xx.N.M.                                ",
"                              2.%.J J *.1.x.x.j.N.].l.1.1.1.1.x.x.l.1.#                             ",
"                            @ *.J J *.J N.S 1.P J l.x.N.H K <.Q.z.x.z.1.X.                          ",
"                          X 3.J J 1.J J 6.3.K J J J J #.K *.E x.N.x.M.x.*..                         ",
"                        o ~ 1.+X XJ J D *.n.7 6 7 y } 6 6 6 J *.[.|.M.J F.N.                        ",
"                        *.{.1.+XJ J K J C.K 6 6 4 N.7 j 6 4 2 J ).x.x.L Y l..                       ",
"    $                 1.1.1.1.J J N $.Z K 6 4 7 4 4 k K.4 4 6 2 D x.x.XX| x.Z.                      ",
"                      =.1.1.J J K J N.@._ 2 < l.h.N.z.x.t.7 6 4 6 x.x.x.x.x.x.                  .   ",
"                    u 1.1.1.J J OX0 J J J < N.r.F 1.1.1.G.@.+.7 7 6 l.z.d.x.x.o   O                 ",
"              .     3...Y.J K J h.3.J J < s 5 < x.z.& 1.1.1.H t J d M.x.1.8.x.N.                    ",
"                    d.x.x.J F J J J J 6 2 2 < z.3.1.1.1.1.1.1.#.] 6 - x.x.F x.x.                    ",
"                  N.R z.z.F l.$.J J J y < 9 x.t 2 6 2 2.1.1.:.Q J 4 6 N.K C.z.x.                    ",
"                  ~ j.V.J ~ F W J J H K.= 1 6 6 _ 6 x.h.1.*.7 M.M.x.< z.J x.z.l.X                   ",
"                  2.z.x.J 7.z.z.J J J c.h 6 6 6 6 6 7 Z.M.1.5 n.1.x.2 x J x.x.x.N.                  ",
"                  L.x.Y K K J G J J N.s 2 4 6 7 4 6 6 6 4 6.{ - 7.z.2 = K l.x.x.x.                  ",
"                  s.x.N...+X( J J +.h.& 4 { 1.7 6 6 6 6 6 4 ~ 1 5.< 5 ( J x.x.x.l.                  ",
"                b M.x.z.J OXB @.J 9 l.H.4 *.>.6 6 6 6 6 4 4 E 5 N.6 r.D C :.N.z.j.                  ",
"                . f.x.N.J OXI.J J x.' 4 J D.2 6 6 6 6 < < < x.y A K a @.D K *.V.l.                  ",
"            .     1.x.x.J 5.h.@./ 2 7 J T V.< 6 6 6 2 1.~ 5 z.E < J s J $.J *.x.x.                  ",
"                + N.N.+XF K *.#.3 7 2.J J v.< 4 6 6 6 1.1.T S.G 4 J 2 J s i x.x.N.                  ",
"                r.9.l.3.Q M.3 @.6 , 1.J J l.6 m.6 < 2 6 J t a ;.2 6 6 J 2 i x.#Xx.l                 ",
"                g 1.x.f.|.-.c 6 6 q T J J 7 7 ..6 J 6 6 @.< e N.h.2 7 F J U 1.x.U.b.                ",
"                x.Q x.x.x.z.2 6 4 q #.J x.7 2 2 - F * 6 - : 6 N.x.K 4 r r A.6.x.x.n                 ",
"                n.a.x.x.z.z.2 4 4 6 I J l.< 2 6 3.l.x.` / N.6 N.x.1.: J 4 x.1.+Xx.x                 ",
"                6.z.N.z.C.+X6 6 6 1.z.J C.6 b.z.1.n.6 4 S.x.2 #X+X*.z.J s N.M.z.x.x.                ",
"                B.n.x.x.x.7 6 6 6 *.L J 1.2 b.:.~ J 2 ] 2 K V.C.^.1.9.J y 7.N.z.x.x.                ",
"                c i.N.x.N.7 6 4 6 $.K K *.6 >.1.q.1.@.7 6 6 1.+XJ *.x.@.x.P N.N.x.x.                ",
"                o.1.x.x.(.< 2 7 4 $.J J 1.2 - @.3.4 1.4.B 1.+Xx *.D x.< K M.S.x.+Xz.                ",
"                n 6.z.!.#X$X6 2 6 $.J J 1.4 6 W 1.~ w.1.^ #XZ.8 J 6  .6 K x.T N.x.1.                ",
"                  ;.x.x. X}.y.6 6 > K J 1.6 6 Z.J z.*.E 1.1.S.G #.o.7 6 <.x.J +Xz.N.                ",
"      .           1.x.z.x.J 6 6 6 p 6 #.1.1.6 2 z.U 1.1.7.I 5 < 4 N.6 1.x.J x.P.x.v                 ",
"                  z.x.~.x.K 6 7 6 ` 7 t =.1.5 6 x.x.6.! 0.0 5 < C.6 6 1.x.x.OXx.x.                + ",
"                  *.z.x.x.+X< OX4 4 3 2 J 1.6 4 5 E OX+X1.1.2 x : 4 & *.l._.h.x.j.                  ",
"                  M.x.x.x.J > 6 2 2 *.6 x.l.~ > 6 - ~ Q.e.1.1.1.9 ) < 1.d N.N.x.N.                  ",
"                  n n.x.x.N.C 6 6 6 Q 4 *.x.x.K *.6 6 1.*.1.*.1.=.4 -.1.x.F z.x.X                   ",
"                  # <.z.x.x.6 5 6 6 h.1.1.d.x.x.q q.~ ,.w.1.>.5 4 4 )  .j f.x.z.                    ",
"                    1.#X+XN.#.6 < 6 J.& *.3.x.x.x.x.= 2 7 x.x.z.2 d K 6 K 6.x.h.                    ",
"                    1.N.N.x.F a J 6 < ; E ~ ~ f.6 7 C.x.4.3 6 2 V 3.0 5 @XN.OX%                     ",
"                    K.1.*.x.x.W.T.4 6 N.4 1.1.1.n.6 6 6 4 = 1.1.& 4 5 1 1.1.1.                      ",
"                      ~ 1.x.x.U.R.&.s 5 3 ) t w 4 ,.1.3.1.~ 4 4 < > 4 J.M.3.                        ",
"                        3.OXx.x.N.oX`.7 6 E.1.t & 6 6 t u.N.< K & u.x.!.x.M                         ",
"                        X %.x.N.z.I.h.#.d 6 4 z +.J t #.#.#.J 5 4 4 x.N.1.                          ",
"        X                 ~ K x.x.x.x.J p.1.5 6 m 4 m [ J 2 6 $X6 h l.N.+               O           ",
"                            1.Q x.1.1.U 1.+X@X( 4 5 < < 6 6 6 2 r.;.l.E                             ",
"                            3.J 1.1.J J J 1.1.e.1.4 2 *.J l.{.M.*.N.N.                              ",
"                            X z.K K J }.J 1.1.R 1.! 3.+X'.OX+Xs.f.N.Z.                              ",
".                             X x.S l.J J K 1.].1..XK $X$X+X+X+X+Xx.o                               ",
"                                  f l.M.#.J *.J J #.x.4.~ OX X}.j.B.                                "
};
