/* XPM */
static char *_5c180bd944f45eeab695e3fe5f76cd2myBGuG4c9YtfqeRG[] = {
/* columns rows colors chars-per-pixel */
"50 50 42 1 ",
"  c #020202",
". c #040404",
"X c gray3",
"o c #0C0C0C",
"O c #111111",
"+ c #151515",
"@ c #191919",
"# c #1E1E1E",
"$ c #202020",
"% c #272727",
"& c #2A2A2A",
"* c gray18",
"= c #323232",
"- c gray21",
"; c #3A3A3A",
": c #3F3F3F",
"> c gray26",
", c #444444",
"< c #4B4B4B",
"1 c gray31",
"2 c gray32",
"3 c gray34",
"4 c gray36",
"5 c #5F5F5F",
"6 c gray38",
"7 c gray42",
"8 c #6D6D6D",
"9 c gray45",
"0 c #747474",
"q c #797979",
"w c #7E7E7E",
"e c #818181",
"r c gray53",
"t c #8B8B8B",
"y c #979797",
"u c gray60",
"i c gray63",
"p c #A7A7A7",
"a c gray67",
"s c #C0C0C0",
"d c #D0D0D0",
"f c #FBFBFB",
/* pixels */
"o             o Oo+    X             .  .o .      ",
"            &     X    p      . . &  .   ..O      ",
"         ..      .X     XX    .      X  .         ",
"       .   .                          ..Xo     6..",
"       $X  ..    X        .          .@ .-   . ...",
".  .     X   X                   X      .    O$   ",
".     .  OX  X                 ..         X       ",
"    .    .                                   @.   ",
"     ..X   X           X+       ...          ..   ",
"    .OXo   2 5Xo.   oo: ..      ..   o       X.   ",
" .  .o .   @5           @ ..o.     o .     .  o   ",
"...   o . 1X    #    .     o;X .     :.      +    ",
"      +         .          .         <X          X",
"*  X             . O.   o      Oo 9:   X   2      ",
". .*X            .  . o .       %X .  ..          ",
". . 1                   X.           .q.         +",
"     &  .      .    ..               . 2X .    .  ",
"   X  r.   .  ..  + .o   .#. w.. .     ..oX.    . ",
"  o. $   .... ..    o .. X X+ oX ;   p  &..   O   ",
"     .   O oX .      .X Xo o.0oO     o .          ",
"       $. ..  ...  o.O      O @.        #$        ",
"  .     . o..  X  X... .      .          5        ",
"      .. X :5   OX6..X    1.%  o  .  X            ",
"+. O   ..       . &..o .#Xo  .  .... X      t  .  ",
"O       ...  y  .  .X..  f      O.X X X     X X.  ",
"o    @  .oX  X  ..    o.@  u.  oX. @   o    ..   X",
".X .X#  X  .    . O  @  . X .o#X+  o  =.   X ..   ",
"O  .& > X  X      X  .  oOo+.X8X..,X1     3       ",
". . . .. +.#.X@;..$.X.. .X..*. .;o o XX   O       ",
"   %#     .X2X@=oX.ot-. .  +  .X.                .",
" X    .   o     .. oO . .  .. ..   .o   . ..      ",
"   +.    d.X  6@   oX.=...   oXX    + X  O    X   ",
"   .     ....       o7<X*..O....O  X 5.           ",
"       .   o. .   + .XX$oX .X       @o. @O  .  .  ",
".     *.X  oX... XX*. XOd #.XX.. .e ... .   .    .",
" X . .  X.....    @X> o#O+..  X X..* .    .     ..",
"      X . o*  O   . . 3@  @    ..o.  o..  +X    @ ",
"       .X.#.     .oaO.soO  .   XX    .;   @;    X ",
"  .    O       .   ..XX%.y  ...o O   .     . .p   ",
".     X        >.  ..-. .. +. . .9        OX..    ",
" X  &X   .    X O. ..X. ,.O..   XX    o X.X.  .  .",
".      .O  .  ..  o+..w.O .o.XX     .     .*   +. ",
"        X   ...X X19. @. .....                   .",
"     & O      oo .+.t  X  ..   .O  y .  XXO      $",
"           ..X o. X .      X  ..  X .:X X  X      ",
"   +   .  O .. o+ .  0  O o..X 5uoX...#        .  ",
"           .i.X       X.  ooX .XX. XXr<X  .X .o .=",
"          .X..X      .X9  6.o@..    oo..o.      .X",
" .;.                   #      . .. .    .. .X .  .",
" .  X      .           .         .  o   XX -   . ."
};
