/* XPM */
static char *_01770336e464aed87ada44222bb6b33gj4EiqcE8I2V4cK4[] = {
/* columns rows colors chars-per-pixel */
"50 50 219 2 ",
"   c #020202",
".  c #0A0504",
"X  c #070807",
"o  c #0B0B0B",
"O  c #1B0501",
"+  c #100C0D",
"@  c #19150D",
"#  c #0C0F10",
"$  c #0C1314",
"%  c #141313",
"&  c #1A1917",
"*  c #1C1C1C",
"=  c #240900",
"-  c #2A1909",
";  c #371306",
":  c #350C12",
">  c #261B12",
",  c #201C1B",
"<  c #2E2E0C",
"1  c #372E06",
"2  c #1A1D20",
"3  c #1E2326",
"4  c #242424",
"5  c #282828",
"6  c #2B2C2B",
"7  c #2E332D",
"8  c #3C352A",
"9  c #272E31",
"0  c #363837",
"q  c #46120D",
"w  c #5A1B1E",
"e  c #671617",
"r  c #77121A",
"t  c #4B2D11",
"y  c #73340C",
"u  c #571320",
"i  c #6E1720",
"p  c #45362C",
"a  c #583821",
"s  c #523432",
"d  c #653F24",
"f  c #37433E",
"g  c #524D13",
"h  c #615500",
"j  c #7A4518",
"k  c #766909",
"l  c #464337",
"z  c #554433",
"x  c #774727",
"c  c #6D563C",
"v  c #6C6725",
"b  c #384343",
"n  c #464947",
"m  c #4C4C4B",
"M  c #524F4A",
"N  c #45524D",
"B  c #565046",
"V  c #4A5553",
"C  c #525352",
"Z  c #595B58",
"A  c #5A5C59",
"S  c #6C554B",
"D  c #5E605E",
"F  c #696559",
"G  c #766852",
"H  c #535C63",
"J  c #5C6767",
"K  c #626563",
"L  c #676966",
"P  c #686B69",
"I  c #776D64",
"U  c #68716E",
"Y  c #77756B",
"T  c #6A7377",
"R  c #737273",
"E  c #767B77",
"W  c #7C7D7B",
"Q  c #8A430D",
"!  c #9C4B0B",
"~  c #9B4C15",
"^  c #9A5318",
"/  c #A74C04",
"(  c #A34D0B",
")  c #A65209",
"_  c #A64E13",
"`  c #A35216",
"'  c #8B5121",
"]  c #9D5624",
"[  c #877051",
"{  c #8B7864",
"}  c #85756E",
"|  c #7A817C",
" . c #8C8828",
".. c #92832A",
"X. c #AAA935",
"o. c #C4BB3A",
"O. c #D1C82D",
"+. c #DBD528",
"@. c #DED92D",
"#. c #CAC93A",
"$. c #D5CC30",
"%. c #D8D436",
"&. c #DDD535",
"*. c #DED932",
"=. c #DED53A",
"-. c #E2D929",
";. c #E1D82C",
":. c #E1D635",
">. c #E4DC37",
",. c #E1D53B",
"<. c #B3AF4A",
"1. c #938A6A",
"2. c #8C887E",
"3. c #A28F71",
"4. c #A7987E",
"5. c #BBA87F",
"6. c #C5B953",
"7. c #DED441",
"8. c #D9DB4A",
"9. c #D2CB52",
"0. c #E3D443",
"q. c #717E80",
"w. c #7B8788",
"e. c #848582",
"r. c #878A87",
"t. c #908B85",
"y. c #9A978B",
"u. c #949594",
"i. c #959A96",
"p. c #9A9D9B",
"a. c #A69680",
"s. c #9FA098",
"d. c #B8A986",
"f. c #ACA691",
"g. c #B5A997",
"h. c #939DA1",
"j. c #95AAAA",
"k. c #9FAEB2",
"l. c #A2A3A1",
"z. c #A7ACAA",
"x. c #B1ADAA",
"c. c #B7B5AC",
"v. c #ACB4B6",
"b. c #AAB8BC",
"n. c #B6B9B7",
"m. c #C4AC83",
"M. c #CDB38C",
"N. c #CDBC9D",
"B. c #D8BE95",
"V. c #BCC0B3",
"C. c #DEC195",
"Z. c #DECB91",
"A. c #DDC49B",
"S. c #DDC99C",
"D. c #EAC285",
"F. c #E3C495",
"G. c #E2C69B",
"H. c #E9C599",
"J. c #E5CA99",
"K. c #E3C99D",
"L. c #DCC5A2",
"P. c #DAC7A7",
"I. c #C6C3B8",
"U. c #CDCBBC",
"Y. c #D5CBBC",
"T. c #E3C5A3",
"R. c #E2CAA3",
"E. c #EBCFA7",
"W. c #E2CCA9",
"Q. c #E3CBB0",
"!. c #B6BFC2",
"~. c #ADC3C3",
"^. c #AECECC",
"/. c #B2C2C3",
"(. c #BCC3C5",
"). c #BDC7CB",
"_. c #B2CDCB",
"`. c #BACBCC",
"'. c #ADD0CC",
"]. c #B3D0CE",
"[. c #B3CCD0",
"{. c #BECDD1",
"}. c #BED3D9",
"|. c #C3C7C6",
" X c #CCCBC2",
".X c #CACDCB",
"XX c #D2CEC3",
"oX c #D9C9C2",
"OX c #D5D3C5",
"+X c #D9D4C5",
"@X c #D5D4CA",
"#X c #D9D5C9",
"$X c #D7D9C9",
"%X c #DCD9CC",
"&X c #C3CED4",
"*X c #C4D2D5",
"=X c #CAD4D6",
"-X c #C4D5DB",
";X c #C9D6DB",
":X c #C6D9DE",
">X c #CBD9DD",
",X c #D3D5D2",
"<X c #D5D7D2",
"1X c #DADCD5",
"2X c #DBDDDB",
"3X c #D6E6DB",
"4X c #DEE1DD",
"5X c #E3E3DE",
"6X c #E8E8DC",
"7X c #C6D5E0",
"8X c #CADAE2",
"9X c #DFD9E5",
"0X c #DFE5E3",
"qX c #E3E5E3",
"wX c #E6E6E7",
"eX c #E5E9E5",
"rX c #EAE9E6",
"tX c #E5EBE9",
"yX c #E9EBE9",
/* pixels */
"o                           o   o # %         o                       %         X o   X             ",
"                        4           o       X r.X e..           X   4 n.&         X   o             ",
"                  X X         X   X o         X o {.&XX     X       # 8X9 X     X X                 ",
"                                                . *X;X*X            {.}.w.X X     o         X C X   ",
"              * X                 X             % -X-X8Xb.        m -X7X*XX &     7       X   X   X ",
"X     X           X       o                     5 :X-X-X-Xn     % =X-X}.-X      X         % &       ",
"            X     % X     X                   o & ;X-X-X-X-XX X =X:X-X-X-X          X               ",
"        X                                         -X-X-X*X:X}.;X-X:X-X-X;X      m (.      & X       ",
"          X   X       o X X                 X o % /.-X-X-X&Xb./.*X-X-X7X8Xo r.7X}.w.      X X       ",
"        X # X X     X n o C o o X     C V X + # X h.:Xb.V oX+X%X.Xb ;X;X*X*X7X-X-X9         X       ",
"          o   X       * m o           & :X7X7X:X}.7Xe.U.@Xm >X:X-X>X-XT }.-X}.-X:X          o       ",
"  X X       o   X   n o         &       ).7X-X7X:X;Xi.0 ;X).!.# E e.0 J /.8X7X:Xv.        %         ",
"            %                   X         ;X:X{.*X7 J :Xk.I.OXOX+X+X+X+XE {.*X*X                  X ",
"6     X                           X   o   . -X-X:XA *XH OXOXOXOXOXXXXXy.1X{.*X9 &     m X           ",
"o   X 4 o                         X   X X   o 7X&X XY $X$XU.y.#X+Xf.<Xy.,Xu.-X:X-X*X}.q.            ",
"X     X n X                               # *X*Xv.XXV.eXyX2XU.OX#X2.wXqX5X0 *X-X-X;Xk.            % ",
"        X 4 X                         b :X8X:X-Xh.XXI.eXwXyXs.1XXX<X4XeX5XV.*X*X:Xp.X         X     ",
"      X   o R X                   & &X-X7X-X:X*Xh.<XrXqX0XJ 4XU.$XrX.X0XyX0X>X8Xw.X X           X   ",
"    o     & X     X X   X     X       5 =X>X7X-Xv.@X|.5XwXyX5Xx.OX5XeX0X0XeX;XH 4 X         o       ",
"          X       o   o o   X             & -X8X.XXXF 5XqXeX#X+XOXn 6X6XeXw.;X7X#                   ",
"              * X                     o   &X-X-X=Xc.Y.5 rXV.<X#Xy.$Xx.  p U.3 }.*X*                 ",
"    X         X X   o o o     o X   o X !.*X*X-X*XC OX+XOX%XOXy.2.$X2.c.D U.%Xk.8X:Xo               ",
"                  o X 0 C       o o Z + v.>X;X*Xf @ XX2.& XX+XI y.$X%XY.OXU.@X(.2                   ",
"%     o         X     . = a d a =   5 o   o 2 b.@XF OX+X+X#XXXOXz +X+X+XY c.P &X).      R     o     ",
"%                 X x ~ ! ) / / / ^ ; + X   C ). XXXOXU.Y.OX@XI = q <Xt.z @X$ -X}.5     o   X       ",
"o         %     O ! ) ) ! ` ` ] ~ ) / y   X ;X:X0 ,X} $XOXI 3Xq r r : u e S E q.:X).    X         o ",
"X X     o & X = ! ) ) ] q { Y.P.P.z t ` x 6 9 j.{.8X5 %X8 yX: w e q p 0 } x.q.}.  X o o     X       ",
"o X   X 5 . 4 ] ^ ! j 4.R.H.F.H.F.F.F.G ' ; F c.J -XN g.i w F oXOXU.6Xc.>   4 &X2   m               ",
"X   X   o   y ~ ! y C.A.J.G.K.A.G.A.H.G.M.x o * W }.E S w g.+X+XOX+XY.OXl.wXr.} +   %               ",
"      4 , . ~ ! ^ a.D.S.S.S.G.G.G.L.{ . g.5.>   | s W @X4X@ U.OX+X+X@XOXC qXyX5X+                 X ",
"  X   X   = ( ) - H.L.F.A.L.Z.G.G.4.5XrXeXl > X M 0X,Xc.5X7 @X+X+X%X,X& wXwXqXqX2X  X               ",
"      % X - ) _ m.S.F.G 6X5XS G.H.G qXwXeXqXg.B i.0XyXqX0X2 7 t.Y.A m R rXrXqXrX2X%         X       ",
"      X   - ( y F.T.S.qXqXqXqX{ J.4.qXwXwXqX1.2.z. X,XqXv.l._._.&X`.N qXz.eXqXqXM 5                 ",
"          O ) t J.T.d.eXrXi.qXY K.R.I.yX0XeXA.p W eXK eXE |.[._.^.^.N qXe.qXqXqX2XW     X     X     ",
"            _ t J.T.L.yX2X0XyXI G.m.P.V.tXl J.- 9XqXZ ,XwX4X[.'._.^.U qXyXp.0Xp.5X X    X           ",
"  o       X y Q Q.A.G.[ rX0X4XN.F.E.G B.S.G.A.> wXqXP C 4XyX_.].^.^.h.qXqXW 4XK qXyX              X ",
"            o ~ c G.G.E.P.P.P.A.A.P.W.L.T.G.G.+ yXqXs.l.yXwX~.'.^._.b.rX4XA rXF wXqX+ X         %   ",
"              = S.K.G.H.J.F.F.H.S.t W.W.T.K.T.& qXeXv.qX4XwXk.]._.^._.rX.X4XqXC qXwX4 7     X   o   ",
"              # L.H.G.G.A.R.G.G.5.K.A.A.B.H.d.4 ,XqX.XwXL 5Xr.'._._.]..XqXv.qXw.qXrX, X     u.      ",
"X           X   8 s B.L.H.G.G.S.m.R.R.F.G.R.+   l.eX<X0Xc.qXV '._._.'.i.rXD 4XI.qXqXm X   X o       ",
"  X     5 o   X o 8.1 W.B.F.T.G.K.S.F.C.A.> X   R qX0Xu.eX5XN '.'.[.].H qXp.qXwXwXqXe.X     .       ",
"X             < %.,.*.g 3.L.F.G.S.S.C.R.> o R X 0 wXqXqXn eXf ^.'.'.'.V rXrXqXeX<XqXn.5       %     ",
"            < :.&.:.&.+.6.. d.L.S.L.1.- 8.  * X * 5XqX2XyXc.R _._._.'.J | qXqXeXi.qX1X            X ",
"          @ 7.,.*.:.:.0.>.>.8.<. .9.%.0.%.1   X 5 qXqX1X4XqXz.]._.^.].h.A 0XqXqXA wXwX          X , ",
"          v -.,.:.,.&.*.,.:.:.:.:.:.,.-.-.6.    + qXqX|.qX4X(.{.[.'.^.!.@X0XqX4XL qXwX.             ",
"      %   X.:.;.:.k =.@.:.>.,.;.*.@.;.0.;.-.    % qXrXl.4XeXyX~.]._.'.~.4XwXqX0Xx.5XwX&             ",
"          #.:.&.@.h =.>.&.:.:.&.:.&.O.:.&.*.o o X qXeXU qXqX0X| ^.].'.].b.wXqXqX,XwXqX0   X o   X 5 ",
"          #.:.&.=.k ,.:.:.:.:.:.;.7.$.=.&.o.o K X @X5XC 0XeXeXb _.[._._.J tX0X4X4X4XqXl.          X ",
"  X 7 X   #.:.:.7.k =.:.:.&.:.:.-.7.$.7.@.[ . >   V.0Xf qXqXrXN _._._.[.b eXqXrXeX2X5XrXX   X       ",
"  X     o #.:.:.=...0.&.:.,.:.=.&.7.@.=.>.<   X   L rXL qXqXqXi._._._._.J qXqX0XeX(.eXqXo     X   X "
};
